<svg role="img" viewBox="0 0 24 24" xmlns="http://www.w3.org/2000/svg" id="Gitlab--Streamline-Simple-Icons" height="24" width="24"><desc>Gitlab Streamline Icon: https://streamlinehq.com</desc><title>GitLab</title><path d="m23.6004 9.5927 -0.0337 -0.0862L20.3 0.9814a0.851 0.851 0 0 0 -0.3362 -0.405 0.8748 0.8748 0 0 0 -0.9997 0.0539 0.8748 0.8748 0 0 0 -0.29 0.4399l-2.2055 6.748H7.5375l-2.2057 -6.748a0.8573 0.8573 0 0 0 -0.29 -0.4412 0.8748 0.8748 0 0 0 -0.9997 -0.0537 0.8585 0.8585 0 0 0 -0.3362 0.4049L0.4332 9.5015l-0.0325 0.0862a6.0657 6.0657 0 0 0 2.0119 7.0105l0.0113 0.0087 0.03 0.0213 4.976 3.7264 2.462 1.8633 1.4995 1.1321a1.0085 1.0085 0 0 0 1.2197 0l1.4995 -1.1321 2.4619 -1.8633 5.006 -3.7489 0.0125 -0.01a6.0682 6.0682 0 0 0 2.0094 -7.003z" fill="#000000" stroke-width="1"></path></svg>