<svg role="img" viewBox="0 0 24 24" xmlns="http://www.w3.org/2000/svg" id="Podman--Streamline-Simple-Icons" height="24" width="24"><desc>Podman Streamline Icon: https://streamlinehq.com</desc><title>Podman</title><path d="M17.2 0.275 6.75 0.308a0.259 0.259 0 0 0 -0.203 0.098L0.056 8.602a0.259 0.259 0 0 0 -0.05 0.219l2.356 10.194a0.26 0.26 0 0 0 0.14 0.174l9.43 4.511a0.258 0.258 0 0 0 0.224 -0.002l9.401 -4.566a0.259 0.259 0 0 0 0.141 -0.175L23.993 8.75a0.258 0.258 0 0 0 -0.051 -0.22L17.403 0.374A0.259 0.259 0 0 0 17.2 0.275zm-0.123 0.517 6.385 7.966 -2.242 9.964 -9.177 4.457 -9.205 -4.402L0.54 8.827 6.875 0.824zM11.46 2.857c-0.933 0 -1.84 0.1 -2.426 0.332h-0.002c-1.554 0.569 -2.725 2.105 -3.074 3.952v0.004c-0.309 1.463 -0.392 2.703 -0.556 3.824 -0.07 0.481 -0.159 0.94 -0.283 1.387 -0.628 0.497 -1.079 1.263 -1.244 2.138v0.004c-0.116 0.547 -0.181 1.04 -0.237 1.5h-0.644v0.518h8.891c-0.061 0.464 -0.122 0.996 -0.181 1.42H7.596v0.517h7.939c-0.242 -0.078 -0.486 -0.218 -0.756 -0.502h-0.697l-0.85 0.488 -0.232 -0.396 0.162 -0.092h-1.069c0.113 -0.776 0.17 -1.601 0.373 -2.564v-0.004c0.22 -1.164 0.96 -2.112 1.895 -2.453l0.004 -0.002h0.002c0.318 -0.127 0.928 -0.205 1.543 -0.205 0.613 0 1.244 0.075 1.622 0.207 0.935 0.341 1.676 1.29 1.895 2.453v0.004c0.204 0.963 0.26 1.788 0.373 2.564h-0.742l0.162 0.092 -0.233 0.396 -0.85 -0.488h-0.75c-0.219 0.25 -0.474 0.412 -0.747 0.502h4.392v-0.518h-0.842c-0.103 -0.743 -0.181 -1.67 -0.382 -2.623v-0.002a4.14 4.14 0 0 0 -0.264 -0.863h1.863v-0.517h-2.13a3.488 3.488 0 0 0 -0.8 -0.906h1.8v-0.518H17.95a8.862 8.862 0 0 1 -0.193 -0.775h1.484v-0.518h-1.576c-0.013 -0.081 -0.027 -0.161 -0.039 -0.244 -0.164 -1.12 -0.246 -2.36 -0.555 -3.824v-0.004c-0.348 -1.848 -1.52 -3.383 -3.075 -3.952l-0.002 -0.002h-0.002c-0.65 -0.227 -1.596 -0.33 -2.531 -0.33zm0 0.386c0.904 0 1.833 0.11 2.404 0.309h0.002c1.4 0.514 2.5 1.934 2.826 3.666v0.003c0.303 1.436 0.385 2.66 0.552 3.805 0.076 0.515 0.173 1.013 0.315 1.505 -0.449 -0.135 -1.05 -0.197 -1.648 -0.197 -0.12 0 -0.236 0.003 -0.352 0.008l-1.863 -1.865a2.17 2.17 0 0 0 0.11 -0.246l2.13 1.23 0.13 -0.224 -2.185 -1.262c0.016 -0.069 0.027 -0.14 0.036 -0.21l2.302 0.616 0.068 -0.248 -2.354 -0.63c-0.02 -1.153 -1.008 -2.078 -2.208 -2.078 -1.205 0 -2.196 0.931 -2.206 2.091l-2.303 0.617 0.066 0.25 2.252 -0.605c0.01 0.076 0.024 0.151 0.041 0.224L7.436 11.24l0.129 0.222 2.087 -1.207c0.034 0.089 0.074 0.176 0.12 0.258l-1.266 1.266a6.959 6.959 0 0 0 -1.045 -0.075c-0.603 0 -1.186 0.064 -1.578 0.22a2.668 2.668 0 0 0 -0.285 0.124c0.076 -0.335 0.137 -0.675 0.187 -1.021 0.168 -1.144 0.248 -2.37 0.551 -3.805l0.002 -0.001v-0.002c0.326 -1.733 1.426 -3.153 2.828 -3.666h0.002l0.004 -0.002c0.488 -0.194 1.381 -0.307 2.287 -0.307zM8.473 5.194a1.295 1.295 0 0 0 -0.965 0.502l-0.117 0.153 0.306 0.236 0.12 -0.152a0.923 0.923 0 0 1 0.673 -0.352 0.92 0.92 0 0 1 0.67 0.262l0.139 0.134 0.271 -0.275 -0.136 -0.137a1.293 1.293 0 0 0 -0.961 -0.37zm6.39 0a1.289 1.289 0 0 0 -0.96 0.371l-0.138 0.137 0.274 0.275 0.136 -0.134a0.923 0.923 0 0 1 0.672 -0.262 0.923 0.923 0 0 1 0.674 0.352l0.119 0.152 0.307 -0.236 -0.12 -0.153c-0.23 -0.3 -0.587 -0.486 -0.964 -0.502zM8.53 6.708c-0.642 0 -1.164 0.538 -1.164 1.19 0 0.65 0.522 1.187 1.164 1.187 0.643 0 1.164 -0.536 1.164 -1.188 0 -0.651 -0.521 -1.19 -1.164 -1.19zm6.273 0c-0.643 0 -1.162 0.538 -1.162 1.19 0 0.65 0.52 1.187 1.162 1.187 0.643 0 1.164 -0.536 1.164 -1.188 0 -0.651 -0.521 -1.19 -1.164 -1.19zm-6.273 0.387c0.428 0 0.776 0.355 0.776 0.802 0 0.447 -0.348 0.8 -0.776 0.8a0.785 0.785 0 0 1 -0.775 -0.8c0 -0.035 0.002 -0.07 0.006 -0.103 0.07 0.191 0.248 0.318 0.445 0.318a0.487 0.487 0 0 0 0.477 -0.496 0.49 0.49 0 0 0 -0.383 -0.486 0.759 0.759 0 0 1 0.23 -0.035zm6.273 0c0.428 0 0.777 0.355 0.777 0.802 0 0.447 -0.349 0.8 -0.777 0.8a0.785 0.785 0 0 1 -0.77 -0.9c0.072 0.19 0.248 0.315 0.444 0.315a0.486 0.486 0 0 0 0.479 -0.496 0.491 0.491 0 0 0 -0.383 -0.484 0.755 0.755 0 0 1 0.23 -0.037zm-3.08 0.716c1.012 0 1.819 0.775 1.819 1.723 0 0.947 -0.807 1.722 -1.819 1.722s-1.82 -0.775 -1.82 -1.722c0 -0.948 0.808 -1.723 1.82 -1.723zm-0.002 0.528c-0.142 0 -0.258 0.043 -0.355 0.076a0.804 0.804 0 0 1 -0.232 0.054c-0.107 0 -0.2 0.047 -0.268 0.127a0.568 0.568 0 0 0 -0.104 0.207c-0.04 0.134 -0.062 0.268 -0.08 0.315a0.276 0.276 0 0 0 0.032 0.25c0.033 0.056 0.071 0.1 0.117 0.146 0.09 0.092 0.206 0.183 0.322 0.268 0.12 0.088 0.237 0.166 0.326 0.224l-0.008 0.09c-0.043 0.036 -0.14 0.102 -0.324 0.178a0.533 0.533 0 0 1 -0.299 0.025 0.43 0.43 0 0 1 -0.236 -0.172c0.015 -0.138 0.044 -0.293 0.068 -0.449l-0.376 -0.095c-0.05 0.238 -0.067 0.43 -0.094 0.64l0.037 0.059c0.143 0.224 0.318 0.344 0.506 0.392a0.908 0.908 0 0 0 0.52 -0.033 1.57 1.57 0 0 0 0.444 -0.242c0.088 0.067 0.244 0.174 0.446 0.242a0.908 0.908 0 0 0 0.52 0.033 0.868 0.868 0 0 0 0.507 -0.392l0.037 -0.059a6.292 6.292 0 0 0 -0.096 -0.637l-0.377 0.092c0.032 0.148 0.051 0.32 0.07 0.451a0.434 0.434 0 0 1 -0.237 0.17 0.533 0.533 0 0 1 -0.3 -0.025c-0.178 -0.068 -0.272 -0.14 -0.325 -0.178l-0.006 -0.084c0.09 -0.058 0.209 -0.137 0.336 -0.23 0.115 -0.085 0.231 -0.176 0.322 -0.268a0.72 0.72 0 0 0 0.117 -0.146 0.273 0.273 0 0 0 0.031 -0.25c-0.018 -0.047 -0.039 -0.181 -0.08 -0.315a0.564 0.564 0 0 0 -0.103 -0.207 0.343 0.343 0 0 0 -0.268 -0.127 0.815 0.815 0 0 1 -0.234 -0.054c-0.097 -0.033 -0.212 -0.076 -0.354 -0.076zm0.002 0.386c0.057 0 0.134 0.024 0.23 0.057 0.09 0.03 0.208 0.07 0.337 0.076 0.04 0.102 0.06 0.237 0.09 0.338a0.361 0.361 0 0 1 -0.041 0.045 2.66 2.66 0 0 1 -0.276 0.228c-0.165 0.122 -0.271 0.188 -0.342 0.233a5.287 5.287 0 0 1 -0.34 -0.233 2.557 2.557 0 0 1 -0.275 -0.228 0.34 0.34 0 0 1 -0.04 -0.047c0.035 -0.119 0.046 -0.234 0.089 -0.34 0.08 0.012 0.246 -0.042 0.336 -0.072a0.837 0.837 0 0 1 0.232 -0.057zm-3.234 0.61a0.635 0.635 0 0 0 -0.611 0.517l1.084 -0.289a0.614 0.614 0 0 0 -0.473 -0.228zm6.336 0a0.61 0.61 0 0 0 -0.436 0.187c0.352 0.096 0.69 0.184 1.033 0.275a0.632 0.632 0 0 0 -0.597 -0.462zm-0.623 0.607c-0.007 0.035 -0.002 0.07 -0.002 0.103l0.921 0.532a0.648 0.648 0 0 0 0.276 -0.313l-1.195 -0.322zm-5.086 0.05 -1.18 0.315c0.078 0.15 0.207 0.264 0.362 0.316l0.797 -0.46c0.018 -0.059 0.015 -0.12 0.021 -0.17zm4.441 0.714 1.656 1.658a4.19 4.19 0 0 0 -0.826 0.146l-0.95 -1.647a2.51 2.51 0 0 0 0.12 -0.157zm-3.646 0.03c0.04 0.055 0.083 0.118 0.129 0.169l-0.658 1.134a2.656 2.656 0 0 0 -0.276 -0.119l-0.002 -0.002a3.3 3.3 0 0 0 -0.292 -0.082zm3.338 0.317 0.892 1.547c-0.623 0.251 -1.149 0.725 -1.523 1.33h-1.652c-0.262 -0.75 -0.741 -1.38 -1.358 -1.764l0.623 -1.082c0.394 0.347 0.919 0.559 1.492 0.559a2.25 2.25 0 0 0 1.526 -0.59zM7.46 12.09c0.574 0 1.167 0.073 1.518 0.195 0.867 0.319 1.555 1.203 1.76 2.285l0.001 0.002v0.002c0.109 0.513 0.173 0.98 0.227 1.424H9.86a0.386 0.386 0 0 0 -0.494 0H9.11a1.351 1.351 0 0 0 -0.078 -0.418 0.799 0.799 0 0 0 0.569 0.238c0.45 0 0.814 -0.375 0.814 -0.828a0.824 0.824 0 0 0 -0.814 -0.828 0.822 0.822 0 0 0 -0.791 1.016 1.495 1.495 0 0 0 -1.18 -0.559c-0.798 0 -1.46 0.611 -1.48 1.38h-0.342a0.386 0.386 0 0 0 -0.494 0H4.028c0.054 -0.445 0.116 -0.912 0.224 -1.425l0.002 -0.002v-0.002c0.205 -1.084 0.894 -1.97 1.764 -2.287h0.002l0.004 -0.002c0.295 -0.117 0.863 -0.191 1.437 -0.19zm-1.91 1.105a0.898 0.898 0 0 0 -0.67 0.348l-0.119 0.154 0.307 0.237 0.119 -0.155a0.525 0.525 0 0 1 0.379 -0.197 0.52 0.52 0 0 1 0.377 0.147l0.138 0.136 0.272 -0.275 -0.137 -0.137a0.895 0.895 0 0 0 -0.666 -0.258zm4.094 0a0.9 0.9 0 0 0 -0.668 0.258l-0.137 0.137 0.273 0.275 0.137 -0.136a0.522 0.522 0 0 1 0.377 -0.147 0.525 0.525 0 0 1 0.379 0.197l0.119 0.155 0.307 -0.237 -0.12 -0.154a0.894 0.894 0 0 0 -0.667 -0.348zm4.222 0.735a0.947 0.947 0 0 0 -0.707 0.365l-0.117 0.154 0.306 0.237 0.12 -0.155a0.568 0.568 0 0 1 0.413 -0.213 0.571 0.571 0 0 1 0.414 0.159l0.14 0.136 0.27 -0.275 -0.138 -0.137a0.942 0.942 0 0 0 -0.701 -0.271zm4.374 0a0.942 0.942 0 0 0 -0.7 0.271l-0.14 0.137 0.272 0.275 0.139 -0.136a0.571 0.571 0 0 1 0.414 -0.159 0.568 0.568 0 0 1 0.414 0.213l0.119 0.155 0.306 -0.237 -0.117 -0.154a0.947 0.947 0 0 0 -0.707 -0.365zm-12.65 0.232a0.824 0.824 0 0 0 -0.815 0.828c0 0.453 0.365 0.828 0.814 0.828 0.45 0 0.815 -0.375 0.815 -0.828a0.824 0.824 0 0 0 -0.815 -0.828zm5.518 0.285h1.242a4.137 4.137 0 0 0 -0.263 0.864v0.002c-0.05 0.237 -0.092 0.464 -0.127 0.685h-0.602a16.77 16.77 0 0 0 -0.236 -1.5l-0.002 -0.002c-0.003 -0.016 -0.009 -0.032 -0.012 -0.049zm-5.519 0.102a0.43 0.43 0 0 1 0.426 0.441 0.43 0.43 0 0 1 -0.426 0.442c-0.22 0 -0.4 -0.171 -0.422 -0.397a0.298 0.298 0 0 0 0.215 0.092 0.31 0.31 0 0 0 0.305 -0.316 0.317 0.317 0 0 0 -0.129 -0.258c0.01 -0.001 0.02 -0.004 0.031 -0.004zm4.014 0c0.235 0 0.427 0.193 0.427 0.441a0.433 0.433 0 0 1 -0.427 0.442 0.427 0.427 0 0 1 -0.422 -0.405 0.3 0.3 0 0 0 0.256 0.145 0.31 0.31 0 0 0 0.304 -0.317 0.314 0.314 0 0 0 -0.207 -0.298c0.023 -0.004 0.045 -0.008 0.069 -0.008zm4.304 0.414a0.865 0.865 0 0 0 -0.856 0.87c0 0.478 0.382 0.874 0.856 0.874a0.868 0.868 0 0 0 0.857 -0.873 0.867 0.867 0 0 0 -0.857 -0.871zm4.292 0a0.867 0.867 0 0 0 -0.814 1.14 1.597 1.597 0 0 0 -1.295 -0.652c-0.846 0 -1.546 0.65 -1.568 1.463l-1.525 0.408 0.066 0.248 1.477 -0.394c0.004 0.028 0.009 0.06 0.015 0.087l-1.418 0.817 0.131 0.222 1.367 -0.789c0.235 0.552 0.801 0.94 1.455 0.94 0.66 0 1.233 -0.397 1.463 -0.957l1.398 0.806 0.13 -0.222 -1.45 -0.836c0.005 -0.025 0.008 -0.053 0.012 -0.078l1.511 0.404 0.067 -0.248 -1.563 -0.418a1.438 1.438 0 0 0 -0.107 -0.5c0.157 0.186 0.39 0.303 0.648 0.303a0.867 0.867 0 0 0 0.856 -0.873 0.865 0.865 0 0 0 -0.856 -0.871zm-10.567 0.043c0.598 0 1.071 0.444 1.092 0.992h-0.41c0.007 -0.01 0.016 -0.02 0.023 -0.033a0.24 0.24 0 0 0 0.025 -0.22c-0.005 -0.016 -0.021 -0.102 -0.05 -0.196a0.416 0.416 0 0 0 -0.078 -0.156 0.282 0.282 0 0 0 -0.225 -0.108 0.499 0.499 0 0 1 -0.129 -0.031c-0.062 -0.021 -0.142 -0.05 -0.248 -0.05 -0.106 0 -0.188 0.029 -0.25 0.05a0.49 0.49 0 0 1 -0.127 0.031 0.29 0.29 0 0 0 -0.225 0.108 0.424 0.424 0 0 0 -0.08 0.156c-0.029 0.094 -0.043 0.18 -0.048 0.195a0.242 0.242 0 0 0 0.023 0.22c0.008 0.014 0.017 0.023 0.025 0.034h-0.41c0.02 -0.548 0.494 -0.992 1.092 -0.992zm6.275 0.344c0.259 0 0.47 0.211 0.47 0.484a0.477 0.477 0 0 1 -0.47 0.486 0.472 0.472 0 0 1 -0.467 -0.453 0.322 0.322 0 0 0 0.246 0.115c0.18 0 0.326 -0.15 0.326 -0.338a0.34 0.34 0 0 0 -0.156 -0.289c0.017 -0.002 0.033 -0.005 0.05 -0.005zm4.292 0c0.26 0 0.469 0.211 0.469 0.484 0 0.272 -0.21 0.486 -0.469 0.486a0.477 0.477 0 0 1 -0.47 -0.486c0 -0.016 0.002 -0.031 0.004 -0.047a0.33 0.33 0 0 0 0.312 0.24c0.18 0 0.326 -0.15 0.326 -0.338a0.338 0.338 0 0 0 -0.256 -0.332 0.475 0.475 0 0 1 0.084 -0.007zm-10.567 0.24c0.021 0 0.063 0.01 0.125 0.031 0.086 0.03 0.117 0.039 0.186 0.049 0.012 0.041 0.022 0.088 0.033 0.129a1.475 1.475 0 0 1 -0.168 0.138c-0.038 0.028 -0.064 0.045 -0.088 0.061h-0.176c-0.024 -0.016 -0.052 -0.033 -0.09 -0.06a1.602 1.602 0 0 1 -0.168 -0.14l0.034 -0.128c0.107 -0.014 0.146 -0.04 0.185 -0.049a0.504 0.504 0 0 1 0.127 -0.031zm8.458 0.25c0.661 0 1.184 0.502 1.184 1.113 0 0.156 -0.035 0.304 -0.096 0.44l-0.002 -0.024 -0.022 -0.156a2.443 2.443 0 0 0 -0.04 -0.24l-0.377 0.093 0.044 0.274a0.24 0.24 0 0 1 -0.115 0.074 0.299 0.299 0 0 1 -0.168 -0.014c-0.087 -0.03 -0.132 -0.063 -0.18 -0.094 0.057 -0.037 0.13 -0.084 0.198 -0.134 0.08 -0.06 0.16 -0.123 0.226 -0.19a0.542 0.542 0 0 0 0.092 -0.111 0.245 0.245 0 0 0 0.026 -0.225c-0.008 -0.019 -0.022 -0.112 -0.053 -0.21a0.444 0.444 0 0 0 -0.084 -0.163 0.286 0.286 0 0 0 -0.23 -0.107 0.566 0.566 0 0 1 -0.14 -0.037c-0.065 -0.022 -0.152 -0.055 -0.263 -0.055 -0.11 0 -0.195 0.032 -0.262 0.055a0.575 0.575 0 0 1 -0.14 0.037 0.294 0.294 0 0 0 -0.23 0.107 0.436 0.436 0 0 0 -0.083 0.162c-0.03 0.1 -0.045 0.192 -0.052 0.211a0.246 0.246 0 0 0 0.025 0.225 0.534 0.534 0 0 0 0.09 0.111c0.066 0.067 0.146 0.13 0.226 0.19 0.068 0.05 0.138 0.095 0.194 0.132a0.57 0.57 0 0 1 -0.18 0.096 0.305 0.305 0 0 1 -0.17 0.014 0.237 0.237 0 0 1 -0.111 -0.076c0.008 -0.09 0.026 -0.177 0.04 -0.272l-0.376 -0.094c-0.032 0.146 -0.045 0.286 -0.063 0.409a1.052 1.052 0 0 1 -0.09 -0.428c0 -0.611 0.521 -1.113 1.182 -1.113zm0 0.623c0.026 0 0.074 0.01 0.14 0.033 0.066 0.025 0.169 0.052 0.206 0.055l0.035 0.156c-0.04 0.04 -0.112 0.1 -0.184 0.152 -0.095 0.07 -0.14 0.095 -0.197 0.131 -0.056 -0.036 -0.1 -0.061 -0.195 -0.13a1.236 1.236 0 0 1 -0.184 -0.157l0.035 -0.152a1.04 1.04 0 0 0 0.206 -0.055 0.523 0.523 0 0 1 0.138 -0.033zm-2.22 0.353a0.43 0.43 0 0 0 -0.385 0.272l0.656 -0.176a0.416 0.416 0 0 0 -0.271 -0.096zm4.333 0a0.414 0.414 0 0 0 -0.22 0.07l0.603 0.16a0.426 0.426 0 0 0 -0.383 -0.23zm-4.054 0.567 -0.607 0.162a0.436 0.436 0 0 0 0.125 0.113zm3.925 0.002 0.407 0.234a0.443 0.443 0 0 0 0.087 -0.102zm-1.986 0.234c0.067 0.047 0.165 0.108 0.285 0.148a0.68 0.68 0 0 0 0.389 0.024 0.57 0.57 0 0 0 0.232 -0.121 1.201 1.201 0 0 1 -0.904 0.394c-0.356 0 -0.67 -0.145 -0.885 -0.375a0.58 0.58 0 0 0 0.207 0.102c0.144 0.036 0.28 0.014 0.391 -0.024 0.12 -0.04 0.218 -0.1 0.285 -0.148zm-9.524 1.61v0.517h6.214v-0.518zm3.619 1.292v0.517H15.3v-0.517z" fill="#000000" stroke-width="1"></path></svg>